<svg xmlns="http://www.w3.org/2000/svg" xmlns:xlink="http://www.w3.org/1999/xlink" width="100" zoomAndPan="magnify" viewBox="0 0 75 74.999997" height="100" preserveAspectRatio="xMidYMid meet" version="1.0"><defs><g/><clipPath id="892bc639df"><rect x="0" width="49" y="0" height="66"/></clipPath><clipPath id="952d3b72a9"><path d="M 39.691406 49.625 L 66.789062 49.625 L 66.789062 56.578125 L 39.691406 56.578125 Z M 39.691406 49.625 " clip-rule="nonzero"/></clipPath><clipPath id="0c6f5eb596"><path d="M 41.191406 49.625 L 65.265625 49.625 C 66.09375 49.625 66.765625 50.296875 66.765625 51.125 L 66.765625 55.078125 C 66.765625 55.90625 66.09375 56.578125 65.265625 56.578125 L 41.191406 56.578125 C 40.363281 56.578125 39.691406 55.90625 39.691406 55.078125 L 39.691406 51.125 C 39.691406 50.296875 40.363281 49.625 41.191406 49.625 Z M 41.191406 49.625 " clip-rule="nonzero"/></clipPath><clipPath id="5eb20af66c"><path d="M 0.691406 0.625 L 27.789062 0.625 L 27.789062 7.578125 L 0.691406 7.578125 Z M 0.691406 0.625 " clip-rule="nonzero"/></clipPath><clipPath id="49e314ad29"><path d="M 2.191406 0.625 L 26.265625 0.625 C 27.09375 0.625 27.765625 1.296875 27.765625 2.125 L 27.765625 6.078125 C 27.765625 6.90625 27.09375 7.578125 26.265625 7.578125 L 2.191406 7.578125 C 1.363281 7.578125 0.691406 6.90625 0.691406 6.078125 L 0.691406 2.125 C 0.691406 1.296875 1.363281 0.625 2.191406 0.625 Z M 2.191406 0.625 " clip-rule="nonzero"/></clipPath><clipPath id="5530fa8f27"><rect x="0" width="28" y="0" height="8"/></clipPath></defs><g transform="matrix(1, 0, 0, 1, 2, 3)"><g clip-path="url(#892bc639df)"><g fill="#000000" fill-opacity="1"><g transform="translate(6.233775, 51.442447)"><g><path d="M 38.613281 -38.714844 L 22.625 0.878906 L 14.878906 0.878906 L -1.597656 -39.921875 L 5.535156 -39.921875 C 6.363281 -39.921875 7.058594 -39.707031 7.609375 -39.277344 C 8.132812 -38.875 8.519531 -38.359375 8.777344 -37.726562 L 17.992188 -13.898438 C 18.304688 -13.105469 18.605469 -12.234375 18.890625 -11.28125 C 19.171875 -10.34375 19.441406 -9.363281 19.699219 -8.339844 L 18.847656 -8.128906 L 17.988281 -8.3125 C 18.207031 -9.335938 18.445312 -10.316406 18.703125 -11.261719 C 18.960938 -12.21875 19.25 -13.101562 19.570312 -13.902344 L 28.71875 -37.710938 L 29.539062 -37.394531 L 28.710938 -37.683594 C 28.910156 -38.253906 29.285156 -38.765625 29.835938 -39.210938 C 30.421875 -39.683594 31.121094 -39.921875 31.941406 -39.921875 L 39.101562 -39.921875 Z M 36.988281 -39.371094 L 37.800781 -39.042969 L 37.800781 -38.164062 L 31.941406 -38.164062 C 31.535156 -38.164062 31.203125 -38.058594 30.941406 -37.847656 C 30.648438 -37.609375 30.457031 -37.363281 30.367188 -37.109375 L 30.363281 -37.09375 L 21.203125 -13.257812 C 20.90625 -12.515625 20.640625 -11.695312 20.394531 -10.800781 C 20.148438 -9.886719 19.917969 -8.9375 19.703125 -7.941406 L 17.996094 -7.914062 C 17.746094 -8.910156 17.484375 -9.863281 17.210938 -10.777344 C 16.9375 -11.679688 16.652344 -12.507812 16.355469 -13.265625 L 7.152344 -37.066406 C 7.015625 -37.40625 6.808594 -37.679688 6.539062 -37.890625 C 6.300781 -38.074219 5.964844 -38.164062 5.535156 -38.164062 L -0.296875 -38.164062 L -0.296875 -39.042969 L 0.515625 -39.371094 L 16.285156 -0.328125 L 15.472656 0 L 15.472656 -0.878906 L 22.03125 -0.878906 L 22.03125 0 L 21.21875 -0.328125 Z M 36.988281 -39.371094 "/></g></g></g><g fill="#ffffff" fill-opacity="1"><g transform="translate(6.233775, 51.442447)"><g><path d="M 37.796875 -39.046875 L 22.03125 0 L 15.46875 0 L -0.296875 -39.046875 L 5.53125 -39.046875 C 6.164062 -39.046875 6.679688 -38.890625 7.078125 -38.578125 C 7.472656 -38.273438 7.769531 -37.878906 7.96875 -37.390625 L 17.171875 -13.578125 C 17.472656 -12.804688 17.765625 -11.957031 18.046875 -11.03125 C 18.328125 -10.101562 18.59375 -9.132812 18.84375 -8.125 C 19.0625 -9.132812 19.296875 -10.101562 19.546875 -11.03125 C 19.796875 -11.957031 20.078125 -12.804688 20.390625 -13.578125 L 29.53125 -37.390625 C 29.675781 -37.804688 29.957031 -38.1875 30.375 -38.53125 C 30.800781 -38.875 31.320312 -39.046875 31.9375 -39.046875 Z M 37.796875 -39.046875 "/></g></g></g></g></g><g clip-path="url(#952d3b72a9)"><g clip-path="url(#0c6f5eb596)"><g transform="matrix(1, 0, 0, 1, 39, 49)"><g clip-path="url(#5530fa8f27)"><g clip-path="url(#5eb20af66c)"><g clip-path="url(#49e314ad29)"><path fill="#29c447" d="M 0.691406 0.625 L 27.765625 0.625 L 27.765625 7.578125 L 0.691406 7.578125 Z M 0.691406 0.625 " fill-opacity="1" fill-rule="nonzero"/></g></g></g></g></g></g></svg>